<svg width="305" height="277" viewBox="0 0 305 277" fill="none" xmlns="http://www.w3.org/2000/svg">
<path d="M205.216 119.028C205.216 126.958 198.779 133.395 190.849 133.395C182.92 133.395 176.482 126.958 176.482 119.028C176.482 111.099 182.92 104.662 190.849 104.662C198.808 104.691 205.216 111.099 205.216 119.028Z" fill="#E0C091"/>
<path d="M173.353 114.066V114.066C173.69 112.805 172.854 111.439 171.557 111.291C169.938 111.107 168.317 110.809 166.707 110.377L161.818 109.067C143.602 104.186 132.791 85.4622 137.672 67.2461V67.2461C142.542 49.0729 161.292 38.2237 179.493 43.1008L184.355 44.4033C202.528 49.2728 213.377 68.0228 208.5 86.2243C207.572 89.688 206.13 92.8826 204.286 95.7538C202.03 99.2691 202.859 104.529 205.368 107.869V107.869C208.684 112.284 216.736 116.441 220.134 112.088C224.651 106.302 228.107 99.5369 230.121 92.0177C238.187 61.9174 220.269 30.8831 190.169 22.8178L185.308 21.5152C155.207 13.4498 124.173 31.3675 116.108 61.4678L111.268 79.528C109.06 87.7698 100.589 92.6608 92.3468 90.4524V90.4524C86.3832 88.8545 80.2552 92.3925 78.6573 98.356C77.0594 104.32 80.5974 110.448 86.5609 112.046V112.046C94.8026 114.254 99.6937 122.725 97.4853 130.967L87.6478 167.681C86.0499 173.645 89.5879 179.773 95.5515 181.37C101.515 182.968 107.643 179.43 109.241 173.467L112.937 159.674C118.537 138.773 140.021 126.37 160.921 131.97V131.97V131.97C167.407 133.708 172.023 123.093 172.884 116.433C172.986 115.645 173.141 114.855 173.353 114.066Z" fill="#EC724A"/>
<g clip-path="url(#clip0_1045_66)">
<path d="M31.4701 274.942H23.3711L17.0376 265.451C15.9109 263.787 14.8918 262.644 13.9767 262.004C13.0473 261.36 11.9672 261.034 10.7041 260.995H8.59775C7.73295 260.995 7.03322 261.7 7.03322 262.572V274.949H0V239.213H13.5497C17.8737 239.213 21.254 240.038 23.7192 241.705C26.1844 243.369 27.4044 245.85 27.4044 249.127C27.4044 251.594 26.6114 253.678 25.0433 255.381C23.4752 257.099 21.3114 258.343 18.5734 259.143V259.248C19.6105 259.627 20.5686 260.217 21.419 261.006C22.2731 261.794 23.0769 262.738 23.8412 263.838L31.4701 274.942ZM7.01886 244.114V252.148C7.01886 254.303 9.06424 256.047 11.5833 256.047H12.3763C14.5975 256.047 16.4096 255.443 17.8271 254.249C19.2445 253.055 19.9586 251.536 19.9586 249.684C19.9586 247.927 19.3342 246.552 18.0711 245.568C16.8223 244.585 14.9635 244.1 12.5127 244.1H7.01886V244.114Z" fill="black"/>
<path d="M65.9185 274.942H59.2549V261.458C59.2549 260.376 58.2932 259.497 57.1091 259.497H43.1216C41.9374 259.497 40.9757 260.376 40.9757 261.458V274.945H34.3408V239.213H40.9757V252.252C40.9757 253.334 41.9374 254.213 43.1216 254.213H57.1091C58.2932 254.213 59.2549 253.334 59.2549 252.252V239.213H65.9185V274.942Z" fill="black"/>
<path d="M86.7845 274.547C81.8469 274.547 77.8638 272.945 74.828 269.737C71.7959 266.532 70.2852 262.351 70.2852 257.2C70.2852 251.71 71.8317 247.305 74.9178 243.984C78.0038 240.667 82.1519 239 87.3443 239C92.203 239 96.1251 240.602 99.1106 243.811C102.093 247.015 103.589 251.233 103.589 256.448C103.589 261.964 102.053 266.369 98.9814 269.639C95.8846 272.905 91.837 274.547 86.7845 274.547ZM86.8491 269.437C90.1109 269.437 92.6874 268.337 94.5641 266.142C96.4408 263.946 97.381 260.864 97.381 256.915C97.381 252.849 96.466 249.706 94.6287 247.471C92.7879 245.236 90.276 244.125 87.0788 244.125C83.8815 244.125 81.3051 245.286 79.3638 247.623C77.4224 249.945 76.4464 253.012 76.4464 256.824C76.4464 260.662 77.3973 263.729 79.3135 266.015C81.2405 268.286 83.7523 269.437 86.8491 269.437Z" fill="black"/>
<path d="M188.282 274.949H182.003V270.558H181.888C180.926 272.229 179.717 273.495 178.267 274.352C176.814 275.209 175.163 275.633 173.279 275.633C170.635 275.633 168.464 274.848 166.784 273.293C165.087 271.737 164.24 269.629 164.24 266.956C164.24 264.341 165.087 262.217 166.799 260.575C168.496 258.933 171.055 257.87 174.431 257.363L182.046 256.347V255.736C182.046 253.786 181.543 252.35 180.539 251.446C179.534 250.542 178.152 250.093 176.43 250.093C175.066 250.093 173.67 250.339 172.264 250.849C170.857 251.359 169.476 252.115 168.155 253.132L165.367 249.207C167.089 247.869 168.902 246.867 170.785 246.227C172.669 245.587 174.722 245.254 176.95 245.254C180.758 245.254 183.589 246.212 185.473 248.133C187.342 250.054 188.29 252.929 188.29 256.781V274.949H188.282ZM182.046 263.132V260.702L175.881 261.53C174.054 261.791 172.705 262.286 171.801 263.028C170.897 263.769 170.452 264.843 170.452 266.254C170.452 267.636 170.868 268.724 171.715 269.509C172.562 270.294 173.67 270.703 175.034 270.703C177.133 270.703 178.827 269.99 180.122 268.58C181.4 267.158 182.046 265.339 182.046 263.132Z" fill="black"/>
<path d="M262.203 262.156H244.613C243.611 262.156 242.858 263.075 243.041 264.066C243.378 265.892 244.089 267.346 245.162 268.42C246.601 269.86 248.621 270.572 251.24 270.572C252.267 270.572 253.462 270.355 254.829 269.918C256.196 269.48 257.549 268.782 258.902 267.809L261.761 271.922C259.982 273.216 258.173 274.146 256.354 274.743C254.531 275.34 252.525 275.629 250.347 275.629C245.947 275.629 242.517 274.334 240.07 271.734C237.622 269.133 236.384 265.498 236.37 260.818C236.37 256.181 237.637 252.43 240.185 249.551C242.732 246.686 245.98 245.247 249.949 245.247C253.777 245.247 256.766 246.469 258.945 248.911C261.123 251.352 262.203 254.813 262.203 259.291V262.156ZM254.208 257.62C255.231 257.62 256.038 256.712 255.891 255.692C255.668 254.141 255.173 252.904 254.402 251.981C253.336 250.715 251.825 250.075 249.888 250.075C248.05 250.075 246.486 250.759 245.205 252.126C244.376 253.009 243.759 254.086 243.346 255.356C242.983 256.47 243.791 257.62 244.954 257.62H254.208Z" fill="black"/>
<path d="M274.626 239.792H268.17V246.165H263.997V251.25H266.143C267.259 251.25 268.167 252.166 268.167 253.29V267.147C268.167 269.95 268.866 272.059 270.295 273.477C271.723 274.891 273.765 275.6 276.424 275.6V275.629H279.065V270.576L277.766 270.605C276.707 270.605 275.91 270.286 275.394 269.664C274.881 269.042 274.622 268.019 274.622 266.586V253.294C274.622 252.166 275.53 251.254 276.646 251.254H279.065V246.165H274.622V239.792H274.626Z" fill="black"/>
<path d="M159.934 274.602H153.877V248.484C153.877 247.634 152.922 247.127 152.205 247.59L142.703 253.79C141.457 254.6 139.839 254.6 138.608 253.775L129.271 247.616C128.554 247.135 127.585 247.655 127.585 248.509V274.616H121.761V242.791C121.761 239.854 125.051 238.099 127.513 239.705L138.605 246.936C139.835 247.731 141.414 247.746 142.656 246.95L154.192 239.597C156.668 238.02 159.92 239.774 159.92 242.697V274.605H159.934V274.602Z" fill="black"/>
<path fill-rule="evenodd" clip-rule="evenodd" d="M205.675 252.466C202.036 252.466 199.072 255.428 199.072 259.07V274.547H193.306V259.07C193.306 252.242 198.85 246.697 205.675 246.697H206.941V252.466H205.675Z" fill="black"/>
<path d="M284.522 273.412L286.668 269.664C287.863 270.442 289.047 271.046 290.217 271.451C291.387 271.856 292.668 272.03 294.06 272.005C295.937 271.968 297.354 271.578 298.331 270.847C299.292 270.117 299.769 269.05 299.744 267.628C299.719 266.445 299.267 265.48 298.392 264.713C297.516 263.946 296.134 263.342 294.268 262.879C290.77 262.051 288.355 260.944 287.024 259.559C285.692 258.177 285.01 256.441 284.964 254.343C284.914 251.916 285.782 249.88 287.537 248.234C289.306 246.599 291.731 245.746 294.843 245.68C296.343 245.644 297.771 245.818 299.124 246.183C300.476 246.549 301.854 247.178 303.247 248.068L301.259 251.75C299.992 250.972 298.854 250.419 297.857 250.115C296.845 249.815 295.833 249.674 294.796 249.699C293.027 249.735 291.674 250.1 290.745 250.806C289.805 251.511 289.356 252.502 289.378 253.797C289.403 255.056 289.891 255.996 290.827 256.625C291.767 257.255 293.328 257.844 295.499 258.361C298.392 259.092 300.563 260.148 302.012 261.53C303.462 262.912 304.208 264.774 304.255 267.111C304.305 269.777 303.412 271.925 301.585 273.535C299.744 275.144 297.218 275.987 294.01 276.048C292.255 276.088 290.594 275.871 288.997 275.419C287.375 274.971 285.886 274.305 284.522 273.412Z" fill="black"/>
<path fill-rule="evenodd" clip-rule="evenodd" d="M298.993 246.666C297.688 246.313 296.308 246.145 294.855 246.18L294.853 246.18C291.83 246.244 289.534 247.07 287.877 248.6C286.226 250.149 285.416 252.049 285.464 254.332C285.508 256.318 286.149 257.93 287.384 259.212C288.612 260.49 290.909 261.57 294.384 262.393L294.389 262.394C296.284 262.864 297.757 263.492 298.721 264.337C299.703 265.197 300.216 266.295 300.244 267.618L300.244 267.619C300.272 269.172 299.742 270.403 298.633 271.245L298.63 271.247C297.537 272.065 296.001 272.467 294.07 272.505C292.631 272.531 291.289 272.352 290.054 271.924C288.986 271.554 287.915 271.028 286.842 270.367L285.194 273.245C286.403 273.983 287.713 274.545 289.13 274.937L289.133 274.938C290.682 275.376 292.294 275.587 293.999 275.549L294 275.548C297.127 275.489 299.527 274.67 301.255 273.159C302.96 271.656 303.803 269.655 303.755 267.12C303.71 264.893 303.004 263.166 301.667 261.892C300.304 260.592 298.225 259.566 295.38 258.847C293.194 258.326 291.564 257.72 290.549 257.041C289.462 256.311 288.906 255.21 288.878 253.807L288.878 253.805C288.854 252.372 289.36 251.22 290.443 250.407C291.491 249.612 292.964 249.236 294.785 249.199C295.876 249.172 296.94 249.321 297.999 249.636L298.002 249.637C298.931 249.919 299.956 250.401 301.067 251.052L302.583 248.244C301.363 247.507 300.163 246.982 298.993 246.666ZM294.831 245.181C296.378 245.143 297.854 245.322 299.254 245.701C300.664 246.081 302.088 246.734 303.516 247.646L303.907 247.896L301.447 252.452L300.997 252.176C299.751 251.411 298.654 250.881 297.713 250.594C296.749 250.308 295.79 250.175 294.808 250.199L294.806 250.199C293.089 250.234 291.858 250.589 291.047 251.204L291.045 251.206C290.249 251.803 289.858 252.632 289.877 253.788C289.9 254.902 290.32 255.682 291.106 256.21C291.97 256.789 293.461 257.362 295.615 257.875L295.622 257.877C298.56 258.619 300.822 259.705 302.357 261.168C303.92 262.657 304.706 264.656 304.755 267.101C304.807 269.898 303.864 272.193 301.916 273.91L301.914 273.911C299.961 275.619 297.31 276.485 294.021 276.548C292.217 276.589 290.507 276.366 288.863 275.901C287.193 275.439 285.657 274.753 284.248 273.83L283.854 273.572L286.497 268.957L286.941 269.245C288.109 270.006 289.257 270.59 290.381 270.979C291.485 271.361 292.706 271.529 294.051 271.505C295.872 271.47 297.17 271.091 298.029 270.448C298.842 269.83 299.267 268.927 299.244 267.638C299.222 266.595 298.831 265.763 298.062 265.089C297.276 264.4 295.986 263.821 294.151 263.365C290.629 262.531 288.097 261.397 286.663 259.905C285.236 258.424 284.513 256.563 284.464 254.354C284.411 251.784 285.337 249.611 287.195 247.869L287.197 247.867C289.079 246.128 291.634 245.248 294.831 245.181Z" fill="black"/>
<path d="M236.007 274.909L225.249 262.738C224.115 261.454 224.126 259.566 225.274 258.293L235.135 247.384H227.137L218.489 257.938C217.412 258.991 216.885 258.752 216.637 258.108V239.792H210.171V274.909H216.637V264.145C217.075 262.796 218.575 263.935 219.429 264.734L227.768 274.909H236.007Z" fill="black"/>
<path d="M180.836 256.622C180.836 256.622 182.067 255.942 181.988 254.886C181.93 254.112 182.451 255.587 182.734 256.43C182.842 256.755 182.745 257.11 182.49 257.338C182.113 257.674 181.525 257.62 181.223 257.215L180.847 256.712" fill="white"/>
</g>
<defs>
<clipPath id="clip0_1045_66">
<rect width="304.868" height="37.6705" fill="white" transform="translate(0 239)"/>
</clipPath>
</defs>
</svg>
