<svg width="305" height="277" viewBox="0 0 305 277" fill="none" xmlns="http://www.w3.org/2000/svg">
<path d="M219.216 119.028C219.216 126.958 212.779 133.395 204.849 133.395C196.92 133.395 190.482 126.958 190.482 119.028C190.482 111.099 196.92 104.662 204.849 104.662C212.808 104.691 219.216 111.099 219.216 119.028Z" fill="#E0C091"/>
<path d="M187.353 114.066V114.066C187.69 112.805 186.854 111.439 185.557 111.291C183.938 111.107 182.317 110.809 180.707 110.377L175.818 109.067C157.602 104.186 146.791 85.4622 151.672 67.2461V67.2461C156.542 49.0729 175.292 38.2237 193.493 43.1008L198.355 44.4033C216.528 49.2728 227.377 68.0228 222.5 86.2243C221.572 89.688 220.13 92.8826 218.286 95.7538C216.03 99.2691 216.859 104.529 219.368 107.869V107.869C222.684 112.284 230.736 116.441 234.134 112.088C238.651 106.302 242.107 99.5369 244.121 92.0177C252.187 61.9174 234.269 30.8831 204.169 22.8178L199.308 21.5152C169.207 13.4498 138.173 31.3675 130.108 61.4678L125.268 79.528C123.06 87.7698 114.589 92.6608 106.347 90.4524V90.4524C100.383 88.8545 94.2552 92.3925 92.6573 98.356C91.0594 104.32 94.5974 110.448 100.561 112.046V112.046C108.803 114.254 113.694 122.725 111.485 130.967L101.648 167.681C100.05 173.645 103.588 179.773 109.551 181.37C115.515 182.968 121.643 179.43 123.241 173.467L126.937 159.674C132.537 138.773 154.021 126.37 174.921 131.97V131.97V131.97C181.407 133.708 186.023 123.093 186.884 116.433C186.986 115.645 187.141 114.855 187.353 114.066Z" fill="#EC724A"/>
<g clip-path="url(#clip0_1045_62)">
<path d="M31.4701 275.271H23.3711L17.0376 265.78C15.9109 264.117 14.8918 262.974 13.9767 262.333C13.0473 261.69 11.9672 261.364 10.7041 261.324H8.59775C7.73295 261.324 7.03322 262.03 7.03322 262.901V275.278H0V239.543H13.5497C17.8737 239.543 21.254 240.368 23.7192 242.035C26.1844 243.699 27.4044 246.18 27.4044 249.457C27.4044 251.924 26.6114 254.007 25.0433 255.711C23.4752 257.429 21.3114 258.673 18.5734 259.472V259.577C19.6105 259.957 20.5686 260.547 21.419 261.335C22.2731 262.124 23.0769 263.068 23.8412 264.167L31.4701 275.271ZM7.01886 244.444V252.477C7.01886 254.633 9.06424 256.376 11.5833 256.376H12.3763C14.5975 256.376 16.4096 255.772 17.8271 254.579C19.2445 253.385 19.9586 251.866 19.9586 250.014C19.9586 248.256 19.3342 246.882 18.0711 245.898C16.8223 244.914 14.9635 244.429 12.5127 244.429H7.01886V244.444Z" fill="white"/>
<path d="M65.9185 275.271H59.2549V261.787C59.2549 260.706 58.2932 259.827 57.1091 259.827H43.1216C41.9374 259.827 40.9757 260.706 40.9757 261.787V275.275H34.3408V239.543H40.9757V252.582C40.9757 253.664 41.9374 254.542 43.1216 254.542H57.1091C58.2932 254.542 59.2549 253.664 59.2549 252.582V239.543H65.9185V275.271Z" fill="white"/>
<path d="M86.7845 274.877C81.8469 274.877 77.8638 273.275 74.828 270.066C71.7959 266.862 70.2852 262.681 70.2852 257.53C70.2852 252.04 71.8317 247.634 74.9178 244.314C78.0038 240.997 82.1519 239.33 87.3443 239.33C92.203 239.33 96.1251 240.932 99.1106 244.14C102.093 247.345 103.589 251.562 103.589 256.778C103.589 262.294 102.053 266.699 98.9814 269.969C95.8846 273.235 91.837 274.877 86.7845 274.877ZM86.8491 269.766C90.1109 269.766 92.6874 268.667 94.5641 266.471C96.4408 264.276 97.381 261.194 97.381 257.244C97.381 253.179 96.466 250.036 94.6287 247.8C92.7879 245.565 90.276 244.455 87.0788 244.455C83.8815 244.455 81.3051 245.616 79.3638 247.952C77.4224 250.274 76.4464 253.342 76.4464 257.154C76.4464 260.991 77.3973 264.059 79.3135 266.345C81.2405 268.616 83.7523 269.766 86.8491 269.766Z" fill="white"/>
<path d="M188.282 275.279H182.003V270.888H181.888C180.926 272.559 179.717 273.825 178.267 274.682C176.814 275.539 175.163 275.962 173.279 275.962C170.635 275.962 168.464 275.177 166.784 273.622C165.087 272.067 164.24 269.958 164.24 267.285C164.24 264.67 165.087 262.547 166.799 260.905C168.496 259.263 171.055 258.199 174.431 257.693L182.046 256.677V256.065C182.046 254.116 181.543 252.68 180.539 251.776C179.534 250.871 178.152 250.423 176.43 250.423C175.066 250.423 173.67 250.669 172.264 251.179C170.857 251.689 169.476 252.445 168.155 253.461L165.367 249.537C167.089 248.199 168.902 247.197 170.785 246.556C172.669 245.916 174.722 245.583 176.95 245.583C180.758 245.583 183.589 246.542 185.473 248.463C187.342 250.383 188.29 253.259 188.29 257.111V275.279H188.282ZM182.046 263.462V261.031L175.881 261.86C174.054 262.12 172.705 262.616 171.801 263.357C170.897 264.099 170.452 265.173 170.452 266.584C170.452 267.965 170.868 269.054 171.715 269.839C172.562 270.624 173.67 271.032 175.034 271.032C177.133 271.032 178.827 270.32 180.122 268.909C181.4 267.488 182.046 265.668 182.046 263.462Z" fill="white"/>
<path d="M262.203 262.485H244.613C243.611 262.485 242.858 263.404 243.041 264.395C243.378 266.222 244.089 267.676 245.162 268.75C246.601 270.19 248.621 270.902 251.24 270.902C252.267 270.902 253.462 270.685 254.829 270.247C256.196 269.81 257.549 269.112 258.902 268.139L261.761 272.251C259.982 273.546 258.173 274.476 256.354 275.072C254.531 275.669 252.525 275.959 250.347 275.959C245.947 275.959 242.517 274.664 240.07 272.063C237.622 269.463 236.384 265.827 236.37 261.147C236.37 256.51 237.637 252.759 240.185 249.88C242.732 247.016 245.98 245.576 249.949 245.576C253.777 245.576 256.766 246.799 258.945 249.24C261.123 251.682 262.203 255.143 262.203 259.621V262.485ZM254.208 257.95C255.231 257.95 256.038 257.042 255.891 256.022C255.668 254.47 255.173 253.233 254.402 252.311C253.336 251.045 251.825 250.405 249.888 250.405C248.05 250.405 246.486 251.088 245.205 252.456C244.376 253.338 243.759 254.416 243.346 255.686C242.983 256.8 243.791 257.95 244.954 257.95H254.208Z" fill="white"/>
<path d="M274.626 240.122H268.17V246.495H263.997V251.58H266.143C267.259 251.58 268.167 252.495 268.167 253.62V267.477C268.167 270.28 268.866 272.388 270.295 273.806C271.723 275.22 273.765 275.929 276.424 275.929V275.958H279.065V270.905L277.766 270.934C276.707 270.934 275.91 270.616 275.394 269.994C274.881 269.372 274.622 268.348 274.622 266.916V253.624C274.622 252.495 275.53 251.584 276.646 251.584H279.065V246.495H274.622V240.122H274.626Z" fill="white"/>
<path d="M159.934 274.931H153.877V248.813C153.877 247.963 152.922 247.457 152.205 247.92L142.703 254.119C141.457 254.93 139.839 254.93 138.608 254.105L129.271 247.945C128.554 247.464 127.585 247.985 127.585 248.839V274.946H121.761V243.12C121.761 240.183 125.051 238.429 127.513 240.035L138.605 247.265C139.835 248.061 141.414 248.075 142.656 247.28L154.192 239.927C156.668 238.35 159.92 240.104 159.92 243.026V274.935H159.934V274.931Z" fill="white"/>
<path fill-rule="evenodd" clip-rule="evenodd" d="M205.675 252.795C202.036 252.795 199.072 255.758 199.072 259.4V274.877H193.306V259.4C193.306 252.571 198.85 247.026 205.675 247.026H206.941V252.795H205.675Z" fill="white"/>
<path d="M284.522 273.741L286.668 269.994C287.863 270.772 289.047 271.376 290.217 271.781C291.387 272.186 292.668 272.36 294.06 272.334C295.937 272.298 297.354 271.907 298.331 271.177C299.292 270.446 299.769 269.379 299.744 267.958C299.719 266.775 299.267 265.809 298.392 265.042C297.516 264.276 296.134 263.672 294.268 263.209C290.77 262.38 288.355 261.274 287.024 259.888C285.692 258.507 285.01 256.77 284.964 254.673C284.914 252.246 285.782 250.209 287.537 248.564C289.306 246.929 291.731 246.075 294.843 246.01C296.343 245.974 297.771 246.148 299.124 246.513C300.476 246.878 301.854 247.507 303.247 248.397L301.259 252.079C299.992 251.302 298.854 250.748 297.857 250.444C296.845 250.144 295.833 250.003 294.796 250.028C293.027 250.065 291.674 250.43 290.745 251.135C289.805 251.841 289.356 252.832 289.378 254.126C289.403 255.385 289.891 256.326 290.827 256.955C291.767 257.584 293.328 258.174 295.499 258.691C298.392 259.422 300.563 260.478 302.012 261.86C303.462 263.241 304.208 265.104 304.255 267.44C304.305 270.106 303.412 272.255 301.585 273.864C299.744 275.474 297.218 276.316 294.01 276.378C292.255 276.418 290.594 276.201 288.997 275.749C287.375 275.3 285.886 274.635 284.522 273.741Z" fill="white"/>
<path fill-rule="evenodd" clip-rule="evenodd" d="M298.993 246.996C297.688 246.643 296.308 246.475 294.855 246.51L294.853 246.51C291.83 246.573 289.534 247.4 287.877 248.93C286.226 250.479 285.416 252.378 285.464 254.662C285.508 256.648 286.149 258.26 287.384 259.541C288.612 260.82 290.909 261.9 294.384 262.722L294.389 262.723C296.284 263.193 297.757 263.822 298.721 264.666C299.703 265.526 300.216 266.625 300.244 267.947L300.244 267.949C300.272 269.502 299.742 270.732 298.633 271.575L298.63 271.577C297.537 272.395 296.001 272.797 294.07 272.834C292.631 272.86 291.289 272.681 290.054 272.253C288.986 271.884 287.915 271.357 286.842 270.696L285.194 273.575C286.403 274.313 287.713 274.875 289.13 275.267L289.133 275.268C290.682 275.706 292.294 275.917 293.999 275.878L294 275.878C297.127 275.818 299.527 274.999 301.255 273.489C302.96 271.986 303.803 269.984 303.755 267.45C303.71 265.222 303.004 263.495 301.667 262.221C300.304 260.922 298.225 259.896 295.38 259.177C293.194 258.656 291.564 258.05 290.549 257.37C289.462 256.64 288.906 255.539 288.878 254.136L288.878 254.135C288.854 252.701 289.36 251.55 290.443 250.736C291.491 249.942 292.964 249.566 294.785 249.529C295.876 249.502 296.94 249.651 297.999 249.965L298.002 249.966C298.931 250.249 299.956 250.73 301.067 251.381L302.583 248.574C301.363 247.836 300.163 247.312 298.993 246.996ZM294.831 245.51C296.378 245.473 297.854 245.652 299.254 246.03C300.664 246.411 302.088 247.063 303.516 247.976L303.907 248.226L301.447 252.782L300.997 252.505C299.751 251.74 298.654 251.21 297.713 250.923C296.749 250.638 295.79 250.504 294.808 250.528L294.806 250.528C293.089 250.563 291.858 250.918 291.047 251.534L291.045 251.535C290.249 252.132 289.858 252.962 289.877 254.117C289.9 255.231 290.32 256.011 291.106 256.54C291.97 257.118 293.461 257.691 295.615 258.205L295.622 258.206C298.56 258.948 300.822 260.034 302.357 261.498C303.92 262.987 304.706 264.985 304.755 267.431C304.807 270.227 303.864 272.523 301.916 274.239L301.914 274.241C299.961 275.948 297.31 276.815 294.021 276.878C292.217 276.919 290.507 276.696 288.863 276.23C287.193 275.769 285.657 275.082 284.248 274.159L283.854 273.901L286.497 269.286L286.941 269.575C288.109 270.335 289.257 270.919 290.381 271.308C291.485 271.691 292.706 271.859 294.051 271.834C295.872 271.799 297.17 271.42 298.029 270.778C298.842 270.159 299.267 269.256 299.244 267.968C299.222 266.925 298.831 266.092 298.062 265.419C297.276 264.73 295.986 264.15 294.151 263.695C290.629 262.861 288.097 261.727 286.663 260.235C286.663 260.235 286.663 260.235 286.663 260.235C285.236 258.753 284.513 256.893 284.464 254.684C284.411 252.114 285.337 249.941 287.195 248.199L287.197 248.196C289.079 246.458 291.634 245.577 294.831 245.51Z" fill="white"/>
<path d="M236.007 275.239L225.249 263.068C224.115 261.783 224.126 259.895 225.274 258.622L235.135 247.714H227.137L218.489 258.268C217.412 259.32 216.885 259.082 216.637 258.438V240.122H210.171V275.239H216.637V264.475C217.075 263.125 218.575 264.265 219.429 265.064L227.768 275.239H236.007Z" fill="white"/>
<path d="M180.836 256.951C180.836 256.951 182.067 256.271 181.988 255.215C181.93 254.441 182.451 255.917 182.734 256.76C182.842 257.085 182.745 257.44 182.49 257.667C182.113 258.004 181.525 257.95 181.223 257.544L180.847 257.042" fill="white"/>
</g>
<defs>
<clipPath id="clip0_1045_62">
<rect width="304.868" height="37.6705" fill="white" transform="translate(0 239.33)"/>
</clipPath>
</defs>
</svg>
