<svg width="292" height="63" viewBox="0 0 292 63" fill="none" xmlns="http://www.w3.org/2000/svg">
<path d="M107.979 27.8859C106.439 27.8859 104.859 28.3359 103.529 29.1459C102.399 29.7959 101.439 30.6859 100.719 31.7559V17.8359H96.2292V50.9959H100.719V37.7359C100.719 37.0059 100.769 36.4059 100.999 35.8259C101.739 33.8959 103.809 31.8159 106.609 31.8159C111.249 31.8159 111.939 36.0359 111.939 38.5559V50.9959H116.429V38.1159C116.419 28.3759 109.389 27.8859 107.979 27.8859Z" fill="white"/>
<path d="M130.719 27.886C123.709 27.886 118.809 32.836 118.809 39.926C118.809 46.656 123.659 51.536 130.349 51.536C136.109 51.536 142.309 47.746 142.309 39.436C142.299 32.636 137.539 27.886 130.719 27.886ZM130.629 31.456C135.489 31.456 137.709 35.686 137.709 39.616C137.709 45.356 133.979 47.966 130.509 47.966C126.399 47.966 123.409 44.526 123.409 39.776C123.409 35.636 125.639 31.456 130.629 31.456Z" fill="white"/>
<path d="M93.7792 49.856H87.7892L83.0992 41.696C82.2692 40.266 81.5192 39.276 80.8292 38.726C80.1392 38.176 79.3392 37.886 78.4092 37.856H75.6892V49.846H70.4792V19.146H80.4992C83.6992 19.146 86.1992 19.856 88.0292 21.286C89.8492 22.716 90.7592 24.836 90.7592 27.666C90.7592 29.776 90.1792 31.566 89.0192 33.036C87.8592 34.506 86.2592 35.586 84.2292 36.266V36.356C84.9992 36.686 85.6992 37.186 86.3392 37.866C86.9792 38.546 87.5692 39.356 88.1292 40.296L93.7792 49.856ZM75.6892 23.376V33.636H79.6492C81.2892 33.636 82.6392 33.126 83.6892 32.096C84.7392 31.066 85.2592 29.766 85.2592 28.176C85.2592 26.666 84.7992 25.486 83.8692 24.646C82.9392 23.806 81.5692 23.386 79.7592 23.386H75.6892V23.376Z" fill="white"/>
<path d="M202.069 49.856H197.149V46.456H197.059C196.299 47.756 195.359 48.736 194.219 49.396C193.079 50.056 191.779 50.396 190.309 50.396C188.239 50.396 186.539 49.796 185.209 48.586C183.879 47.376 183.219 45.746 183.219 43.676C183.219 41.646 183.889 40.006 185.219 38.736C186.549 37.466 188.549 36.636 191.199 36.256L197.169 35.466V34.996C197.169 33.486 196.769 32.376 195.979 31.676C195.189 30.976 194.109 30.626 192.759 30.626C191.689 30.626 190.599 30.826 189.499 31.216C188.389 31.606 187.319 32.196 186.279 32.986L184.099 29.946C185.459 28.906 186.869 28.136 188.349 27.636C189.829 27.136 191.439 26.886 193.179 26.886C196.159 26.886 198.389 27.626 199.859 29.116C201.329 30.596 202.069 32.836 202.069 35.816V49.856ZM197.179 40.696V38.816L192.339 39.456C190.909 39.656 189.849 40.046 189.139 40.616C188.429 41.186 188.079 42.026 188.079 43.116C188.079 44.186 188.409 45.026 189.079 45.646C189.739 46.256 190.609 46.566 191.679 46.566C193.319 46.566 194.649 46.016 195.659 44.916C196.679 43.816 197.179 42.406 197.179 40.696Z" fill="white"/>
<path d="M238.329 49.856H231.839L223.169 38.896H223.079V49.856H217.979V17.396H223.079V37.736H223.169L231.349 27.396H237.639L228.309 38.096L238.329 49.856Z" fill="white"/>
<path d="M258.139 39.946H242.809C242.909 42.076 243.529 43.696 244.659 44.806C245.799 45.916 247.399 46.476 249.469 46.476C250.279 46.476 251.229 46.306 252.309 45.976C253.389 45.636 254.459 45.096 255.529 44.336L257.799 47.526C256.389 48.526 254.959 49.256 253.519 49.706C252.079 50.166 250.489 50.396 248.769 50.396C245.289 50.396 242.579 49.386 240.639 47.376C238.699 45.366 237.719 42.546 237.709 38.916C237.709 35.316 238.719 32.416 240.729 30.196C242.739 27.976 245.319 26.866 248.459 26.866C251.489 26.866 253.859 27.806 255.579 29.706C257.299 31.596 258.159 34.276 258.159 37.746V39.946H258.139ZM253.259 36.436C253.239 34.506 252.819 33.056 251.979 32.066C251.139 31.086 249.949 30.586 248.399 30.586C246.939 30.586 245.709 31.116 244.699 32.166C243.689 33.226 243.069 34.646 242.839 36.426H253.259V36.436Z" fill="white"/>
<path d="M269.049 50.346C266.949 50.346 265.339 49.796 264.219 48.686C263.099 47.576 262.539 45.936 262.539 43.756V31.356H259.249V27.396H262.539V22.296L267.639 20.756V27.396H271.149V31.356H267.639V43.306C267.639 44.416 267.839 45.216 268.249 45.706C268.659 46.196 269.279 46.436 270.119 46.436L271.139 46.406V50.346H269.049Z" fill="white"/>
<path d="M180.429 49.576H175.499V28.126C175.499 27.426 174.719 27.006 174.139 27.386L166.399 32.476C165.389 33.146 164.069 33.136 163.059 32.466L155.459 27.406C154.869 27.016 154.089 27.436 154.089 28.136V49.576H149.349V23.446C149.349 21.036 152.029 19.596 154.039 20.916L163.079 26.856C164.079 27.516 165.369 27.516 166.379 26.876L175.769 20.836C177.779 19.546 180.429 20.986 180.429 23.386V49.576Z" fill="white"/>
<path d="M209.769 49.5759H205.259V37.4959C205.259 32.1659 209.589 27.8359 214.919 27.8359H215.909V32.3459H214.919C212.079 32.3459 209.759 34.6559 209.759 37.5059V49.5759H209.769Z" fill="white"/>
<path d="M48.8592 38.296C48.8592 41.346 46.3792 43.826 43.3292 43.826C40.2792 43.826 37.7992 41.346 37.7992 38.296C37.7992 35.246 40.2792 32.766 43.3292 32.766C46.3992 32.776 48.8592 35.246 48.8592 38.296Z" fill="#E0C091"/>
<path d="M36.5892 36.386C36.7192 35.896 36.3992 35.376 35.8992 35.316C35.2792 35.246 34.6492 35.126 34.0292 34.966L32.1492 34.466C25.1392 32.586 20.9692 25.376 22.8492 18.366C24.7192 11.366 31.9392 7.19597 38.9492 9.06597L40.8192 9.56597C47.8192 11.436 51.9892 18.656 50.1192 25.666C49.7592 26.996 49.2092 28.226 48.4992 29.336C47.6292 30.686 47.9492 32.716 48.9192 33.996C50.1992 35.696 53.2992 37.296 54.5992 35.616C56.3392 33.386 57.6692 30.786 58.4492 27.886C61.5492 16.296 54.6592 4.34597 43.0692 1.24597L41.1992 0.745975C29.6092 -2.36403 17.6592 4.53596 14.5592 16.126L12.6992 23.076C11.8492 26.246 8.58919 28.136 5.41919 27.286C3.11919 26.666 0.759199 28.036 0.149199 30.326C-0.470801 32.626 0.899177 34.986 3.18918 35.596C6.35918 36.446 8.2492 39.706 7.3992 42.876L3.60919 57.006C2.98919 59.306 4.3592 61.666 6.6492 62.276C8.9492 62.896 11.3092 61.526 11.9192 59.236L13.3392 53.926C15.4992 45.876 23.7692 41.106 31.8092 43.256C34.3092 43.926 36.0792 39.836 36.4192 37.276C36.4492 36.996 36.5092 36.696 36.5892 36.386Z" fill="#E3734F"/>
<path d="M274.599 48.756L276.359 45.776C277.339 46.396 278.309 46.876 279.269 47.196C280.229 47.516 281.279 47.656 282.419 47.636C283.959 47.606 285.119 47.296 285.919 46.716C286.709 46.136 287.099 45.286 287.079 44.156C287.059 43.216 286.689 42.446 285.969 41.836C285.249 41.226 284.119 40.746 282.589 40.376C279.719 39.716 277.739 38.836 276.649 37.736C275.559 36.636 274.999 35.256 274.959 33.586C274.919 31.656 275.629 30.036 277.069 28.726C278.519 27.426 280.509 26.746 283.059 26.696C284.289 26.666 285.459 26.806 286.569 27.096C287.679 27.386 288.809 27.886 289.949 28.596L288.319 31.526C287.279 30.906 286.349 30.466 285.529 30.226C284.699 29.986 283.869 29.876 283.019 29.896C281.569 29.926 280.459 30.216 279.699 30.776C278.929 31.336 278.559 32.126 278.579 33.156C278.599 34.156 278.999 34.906 279.769 35.406C280.539 35.906 281.819 36.376 283.599 36.786C285.969 37.366 287.749 38.206 288.939 39.306C290.129 40.406 290.739 41.886 290.779 43.746C290.819 45.866 290.089 47.576 288.589 48.856C287.079 50.136 285.009 50.806 282.379 50.856C280.939 50.886 279.579 50.716 278.269 50.356C276.939 49.996 275.719 49.466 274.599 48.756Z" fill="white" stroke="white" stroke-width="0.75" stroke-miterlimit="10"/>
</svg>
