<svg width="400" height="400" viewBox="0 0 400 400" fill="none" xmlns="http://www.w3.org/2000/svg">
<rect width="400" height="400" rx="100" fill="black"/>
<path d="M273.725 219.862C273.725 230.825 264.825 239.725 253.862 239.725C242.9 239.725 234 230.825 234 219.862C234 208.9 242.9 200 253.862 200C264.866 200.04 273.725 208.9 273.725 219.862Z" fill="#E0C091"/>
<path d="M229.672 213.002V213.002C230.139 211.259 228.983 209.369 227.19 209.165C224.952 208.91 222.711 208.498 220.485 207.902L213.725 206.091C188.541 199.342 173.595 173.456 180.343 148.272V148.272C187.076 123.147 212.998 108.148 238.162 114.89L244.883 116.691C270.008 123.423 285.007 149.346 278.265 174.51C276.982 179.298 274.987 183.715 272.439 187.684C269.319 192.544 270.466 199.816 273.935 204.434V204.434C278.519 210.538 289.651 216.285 294.349 210.267C300.594 202.267 305.371 192.915 308.157 182.519C319.307 140.905 294.536 97.999 252.921 86.8484L246.2 85.0476C204.586 73.897 161.68 98.6687 150.53 140.283L143.839 165.252C140.786 176.646 129.074 183.408 117.68 180.355V180.355C109.435 178.146 100.963 183.037 98.7535 191.282C96.5443 199.527 101.436 207.999 109.68 210.208V210.208C121.075 213.261 127.837 224.973 124.784 236.368L111.183 287.126C108.974 295.371 113.865 303.843 122.11 306.052C130.355 308.261 138.827 303.37 141.036 295.125L146.146 276.056C153.888 247.16 183.59 230.012 212.486 237.755V237.755V237.755C221.453 240.158 227.834 225.481 229.025 216.275C229.165 215.185 229.38 214.092 229.672 213.002Z" fill="#E3734F"/>
</svg>
